<mxfile host="Electron" agent="Mozilla/5.0 (Windows NT 10.0; Win64; x64) AppleWebKit/537.36 (KHTML, like Gecko) draw.io/24.7.17 Chrome/128.0.6613.36 Electron/32.0.1 Safari/537.36" version="24.7.17">
  <diagram name="Страница — 1" id="hcsSWGrXXxiVXPZraams">
    <mxGraphModel dx="1395" dy="703" grid="1" gridSize="10" guides="1" tooltips="1" connect="1" arrows="1" fold="1" page="1" pageScale="1" pageWidth="1169" pageHeight="1654" math="0" shadow="0">
      <root>
        <mxCell id="0" />
        <mxCell id="1" parent="0" />
        <mxCell id="0bEB5rUUDSqFULpf0DKN-1" value="#include&amp;lt;iostream&amp;gt;&lt;div&gt;#include&amp;lt;clocale&amp;gt;&lt;/div&gt;&lt;div&gt;using namespace std;&lt;/div&gt;&lt;div&gt;float a, b, c;&lt;/div&gt;&lt;div&gt;float fA, fB, fC;&lt;br&gt;&lt;/div&gt;&lt;div&gt;double eps = 0.000001&lt;/div&gt;" style="strokeWidth=2;html=1;shape=mxgraph.flowchart.annotation_1;align=left;pointerEvents=1;" parent="1" vertex="1">
          <mxGeometry x="665" y="40" width="142" height="90" as="geometry" />
        </mxCell>
        <mxCell id="0bEB5rUUDSqFULpf0DKN-2" style="edgeStyle=orthogonalEdgeStyle;rounded=0;orthogonalLoop=1;jettySize=auto;html=1;exitX=0.5;exitY=1;exitDx=0;exitDy=0;entryX=0.5;entryY=0;entryDx=0;entryDy=0;" parent="1" source="0bEB5rUUDSqFULpf0DKN-3" target="0bEB5rUUDSqFULpf0DKN-6" edge="1">
          <mxGeometry relative="1" as="geometry" />
        </mxCell>
        <mxCell id="0bEB5rUUDSqFULpf0DKN-3" value="Начало" style="ellipse;whiteSpace=wrap;html=1;" parent="1" vertex="1">
          <mxGeometry x="510" y="20" width="140" height="40" as="geometry" />
        </mxCell>
        <mxCell id="0bEB5rUUDSqFULpf0DKN-4" style="edgeStyle=orthogonalEdgeStyle;rounded=0;orthogonalLoop=1;jettySize=auto;html=1;exitX=0.5;exitY=1;exitDx=0;exitDy=0;exitPerimeter=0;" parent="1" source="0bEB5rUUDSqFULpf0DKN-1" target="0bEB5rUUDSqFULpf0DKN-1" edge="1">
          <mxGeometry relative="1" as="geometry" />
        </mxCell>
        <mxCell id="VErZ_QiHgzvn_z0K6P6F-29" value="" style="edgeStyle=orthogonalEdgeStyle;rounded=0;orthogonalLoop=1;jettySize=auto;html=1;" edge="1" parent="1" source="0bEB5rUUDSqFULpf0DKN-6" target="VErZ_QiHgzvn_z0K6P6F-28">
          <mxGeometry relative="1" as="geometry" />
        </mxCell>
        <mxCell id="0bEB5rUUDSqFULpf0DKN-6" value="int main()" style="shape=process;whiteSpace=wrap;html=1;backgroundOutline=1;" parent="1" vertex="1">
          <mxGeometry x="522.5" y="110" width="115" height="20" as="geometry" />
        </mxCell>
        <mxCell id="0bEB5rUUDSqFULpf0DKN-7" value="" style="endArrow=none;dashed=1;html=1;dashPattern=1 3;strokeWidth=2;rounded=0;entryX=0;entryY=0.5;entryDx=0;entryDy=0;entryPerimeter=0;" parent="1" target="0bEB5rUUDSqFULpf0DKN-1" edge="1">
          <mxGeometry width="50" height="50" relative="1" as="geometry">
            <mxPoint x="580" y="85" as="sourcePoint" />
            <mxPoint x="595" y="120" as="targetPoint" />
          </mxGeometry>
        </mxCell>
        <mxCell id="0bEB5rUUDSqFULpf0DKN-8" style="edgeStyle=orthogonalEdgeStyle;rounded=0;orthogonalLoop=1;jettySize=auto;html=1;exitX=0.5;exitY=1;exitDx=0;exitDy=0;entryX=0.5;entryY=0;entryDx=0;entryDy=0;" parent="1" source="0bEB5rUUDSqFULpf0DKN-9" target="0bEB5rUUDSqFULpf0DKN-10" edge="1">
          <mxGeometry relative="1" as="geometry" />
        </mxCell>
        <mxCell id="0bEB5rUUDSqFULpf0DKN-9" value="a=1;" style="rounded=0;whiteSpace=wrap;html=1;" parent="1" vertex="1">
          <mxGeometry x="523.75" y="230" width="112.5" height="20" as="geometry" />
        </mxCell>
        <mxCell id="0bEB5rUUDSqFULpf0DKN-34" style="edgeStyle=orthogonalEdgeStyle;rounded=0;orthogonalLoop=1;jettySize=auto;html=1;exitX=0.5;exitY=1;exitDx=0;exitDy=0;entryX=0.5;entryY=0;entryDx=0;entryDy=0;" parent="1" source="0bEB5rUUDSqFULpf0DKN-10" target="0bEB5rUUDSqFULpf0DKN-12" edge="1">
          <mxGeometry relative="1" as="geometry" />
        </mxCell>
        <mxCell id="0bEB5rUUDSqFULpf0DKN-10" value="b=2;" style="rounded=0;whiteSpace=wrap;html=1;" parent="1" vertex="1">
          <mxGeometry x="523.75" y="270" width="112.5" height="20" as="geometry" />
        </mxCell>
        <mxCell id="0bEB5rUUDSqFULpf0DKN-11" value="{" style="text;html=1;align=center;verticalAlign=middle;resizable=0;points=[];autosize=1;strokeColor=none;fillColor=none;" parent="1" vertex="1">
          <mxGeometry x="523.75" y="120" width="30" height="30" as="geometry" />
        </mxCell>
        <mxCell id="VErZ_QiHgzvn_z0K6P6F-21" style="edgeStyle=orthogonalEdgeStyle;rounded=0;orthogonalLoop=1;jettySize=auto;html=1;entryX=0.5;entryY=0;entryDx=0;entryDy=0;" edge="1" parent="1" source="0bEB5rUUDSqFULpf0DKN-12" target="0bEB5rUUDSqFULpf0DKN-28">
          <mxGeometry relative="1" as="geometry" />
        </mxCell>
        <mxCell id="VErZ_QiHgzvn_z0K6P6F-26" value="" style="edgeStyle=orthogonalEdgeStyle;rounded=0;orthogonalLoop=1;jettySize=auto;html=1;" edge="1" parent="1" source="0bEB5rUUDSqFULpf0DKN-12" target="VErZ_QiHgzvn_z0K6P6F-25">
          <mxGeometry relative="1" as="geometry" />
        </mxCell>
        <mxCell id="0bEB5rUUDSqFULpf0DKN-12" value="while (b - a &amp;gt; eps)" style="rhombus;whiteSpace=wrap;html=1;" parent="1" vertex="1">
          <mxGeometry x="510" y="310" width="140" height="60" as="geometry" />
        </mxCell>
        <mxCell id="0bEB5rUUDSqFULpf0DKN-13" value="b = c;" style="rounded=0;whiteSpace=wrap;html=1;" parent="1" vertex="1">
          <mxGeometry x="460" y="630" width="60" height="20" as="geometry" />
        </mxCell>
        <mxCell id="0bEB5rUUDSqFULpf0DKN-36" style="edgeStyle=orthogonalEdgeStyle;rounded=0;orthogonalLoop=1;jettySize=auto;html=1;exitX=0.5;exitY=1;exitDx=0;exitDy=0;entryX=0.5;entryY=0;entryDx=0;entryDy=0;" parent="1" source="0bEB5rUUDSqFULpf0DKN-14" target="0bEB5rUUDSqFULpf0DKN-15" edge="1">
          <mxGeometry relative="1" as="geometry" />
        </mxCell>
        <mxCell id="0bEB5rUUDSqFULpf0DKN-14" value="fA = (pow(a, 2)*0.1 - a*log(a) );" style="rounded=0;whiteSpace=wrap;html=1;" parent="1" vertex="1">
          <mxGeometry x="465.32" y="440" width="229.37" height="20" as="geometry" />
        </mxCell>
        <mxCell id="0bEB5rUUDSqFULpf0DKN-37" style="edgeStyle=orthogonalEdgeStyle;rounded=0;orthogonalLoop=1;jettySize=auto;html=1;exitX=0.5;exitY=1;exitDx=0;exitDy=0;entryX=0.5;entryY=0;entryDx=0;entryDy=0;" parent="1" source="0bEB5rUUDSqFULpf0DKN-15" target="0bEB5rUUDSqFULpf0DKN-16" edge="1">
          <mxGeometry relative="1" as="geometry" />
        </mxCell>
        <mxCell id="0bEB5rUUDSqFULpf0DKN-15" value="fB = (pow(b, 2)*0.1 - b*log(b) );" style="rounded=0;whiteSpace=wrap;html=1;" parent="1" vertex="1">
          <mxGeometry x="465.63" y="480" width="228.75" height="20" as="geometry" />
        </mxCell>
        <mxCell id="0bEB5rUUDSqFULpf0DKN-38" style="edgeStyle=orthogonalEdgeStyle;rounded=0;orthogonalLoop=1;jettySize=auto;html=1;exitX=0.5;exitY=1;exitDx=0;exitDy=0;entryX=0.5;entryY=0;entryDx=0;entryDy=0;" parent="1" source="0bEB5rUUDSqFULpf0DKN-16" target="0bEB5rUUDSqFULpf0DKN-17" edge="1">
          <mxGeometry relative="1" as="geometry" />
        </mxCell>
        <mxCell id="0bEB5rUUDSqFULpf0DKN-16" value="fC = (pow(c, 2)*0.1 - c*log(c) );" style="rounded=0;whiteSpace=wrap;html=1;" parent="1" vertex="1">
          <mxGeometry x="465.63" y="520" width="228.75" height="20" as="geometry" />
        </mxCell>
        <mxCell id="0bEB5rUUDSqFULpf0DKN-24" style="edgeStyle=orthogonalEdgeStyle;rounded=0;orthogonalLoop=1;jettySize=auto;html=1;exitX=1;exitY=0.5;exitDx=0;exitDy=0;entryX=0.5;entryY=0;entryDx=0;entryDy=0;" parent="1" source="0bEB5rUUDSqFULpf0DKN-17" target="0bEB5rUUDSqFULpf0DKN-20" edge="1">
          <mxGeometry relative="1" as="geometry" />
        </mxCell>
        <mxCell id="0bEB5rUUDSqFULpf0DKN-40" value="0" style="edgeLabel;html=1;align=center;verticalAlign=middle;resizable=0;points=[];" parent="0bEB5rUUDSqFULpf0DKN-24" vertex="1" connectable="0">
          <mxGeometry x="-0.7043" y="-1" relative="1" as="geometry">
            <mxPoint x="-1" y="-11" as="offset" />
          </mxGeometry>
        </mxCell>
        <mxCell id="0bEB5rUUDSqFULpf0DKN-25" style="edgeStyle=orthogonalEdgeStyle;rounded=0;orthogonalLoop=1;jettySize=auto;html=1;exitX=0;exitY=0.5;exitDx=0;exitDy=0;entryX=0.5;entryY=0;entryDx=0;entryDy=0;" parent="1" source="0bEB5rUUDSqFULpf0DKN-17" target="0bEB5rUUDSqFULpf0DKN-13" edge="1">
          <mxGeometry relative="1" as="geometry">
            <mxPoint x="400" y="610" as="targetPoint" />
          </mxGeometry>
        </mxCell>
        <mxCell id="0bEB5rUUDSqFULpf0DKN-39" value="1" style="edgeLabel;html=1;align=center;verticalAlign=middle;resizable=0;points=[];" parent="0bEB5rUUDSqFULpf0DKN-25" vertex="1" connectable="0">
          <mxGeometry x="-0.3977" relative="1" as="geometry">
            <mxPoint x="8" y="-10" as="offset" />
          </mxGeometry>
        </mxCell>
        <mxCell id="0bEB5rUUDSqFULpf0DKN-17" value="if (fA * fC &lt; 0)" style="rhombus;whiteSpace=wrap;html=1;" parent="1" vertex="1">
          <mxGeometry x="520" y="570" width="120" height="60" as="geometry" />
        </mxCell>
        <mxCell id="0bEB5rUUDSqFULpf0DKN-26" style="edgeStyle=orthogonalEdgeStyle;rounded=0;orthogonalLoop=1;jettySize=auto;html=1;exitX=0;exitY=0.5;exitDx=0;exitDy=0;entryX=0.5;entryY=0;entryDx=0;entryDy=0;" parent="1" source="0bEB5rUUDSqFULpf0DKN-20" target="0bEB5rUUDSqFULpf0DKN-22" edge="1">
          <mxGeometry relative="1" as="geometry" />
        </mxCell>
        <mxCell id="0bEB5rUUDSqFULpf0DKN-41" value="1" style="edgeLabel;html=1;align=center;verticalAlign=middle;resizable=0;points=[];" parent="0bEB5rUUDSqFULpf0DKN-26" vertex="1" connectable="0">
          <mxGeometry x="-0.615" y="2" relative="1" as="geometry">
            <mxPoint y="-12" as="offset" />
          </mxGeometry>
        </mxCell>
        <mxCell id="0bEB5rUUDSqFULpf0DKN-27" style="edgeStyle=orthogonalEdgeStyle;rounded=0;orthogonalLoop=1;jettySize=auto;html=1;exitX=1;exitY=0.5;exitDx=0;exitDy=0;entryX=0.5;entryY=0;entryDx=0;entryDy=0;" parent="1" source="0bEB5rUUDSqFULpf0DKN-20" target="0bEB5rUUDSqFULpf0DKN-23" edge="1">
          <mxGeometry relative="1" as="geometry" />
        </mxCell>
        <mxCell id="0bEB5rUUDSqFULpf0DKN-42" value="0" style="edgeLabel;html=1;align=center;verticalAlign=middle;resizable=0;points=[];" parent="0bEB5rUUDSqFULpf0DKN-27" vertex="1" connectable="0">
          <mxGeometry x="-0.6488" y="-2" relative="1" as="geometry">
            <mxPoint x="4" y="-12" as="offset" />
          </mxGeometry>
        </mxCell>
        <mxCell id="0bEB5rUUDSqFULpf0DKN-20" value="if (fC * fB &amp;lt; 0)" style="rhombus;whiteSpace=wrap;html=1;" parent="1" vertex="1">
          <mxGeometry x="600" y="620" width="120" height="60" as="geometry" />
        </mxCell>
        <mxCell id="0bEB5rUUDSqFULpf0DKN-22" value="a = c;" style="rounded=0;whiteSpace=wrap;html=1;" parent="1" vertex="1">
          <mxGeometry x="550" y="670" width="60" height="20" as="geometry" />
        </mxCell>
        <mxCell id="0bEB5rUUDSqFULpf0DKN-23" value="cout &amp;lt;&amp;lt; &quot;Ошибка!&quot; &amp;lt;&amp;lt; endl;" style="shape=parallelogram;perimeter=parallelogramPerimeter;whiteSpace=wrap;html=1;fixedSize=1;" parent="1" vertex="1">
          <mxGeometry x="675" y="678" width="170" height="30" as="geometry" />
        </mxCell>
        <mxCell id="VErZ_QiHgzvn_z0K6P6F-20" value="" style="edgeStyle=orthogonalEdgeStyle;rounded=0;orthogonalLoop=1;jettySize=auto;html=1;" edge="1" parent="1" source="0bEB5rUUDSqFULpf0DKN-28" target="0bEB5rUUDSqFULpf0DKN-29">
          <mxGeometry relative="1" as="geometry" />
        </mxCell>
        <mxCell id="0bEB5rUUDSqFULpf0DKN-28" value="cout &amp;lt;&amp;lt; &quot;Корни: &quot; &amp;lt;&amp;lt; a &amp;lt;&amp;lt; &quot;;&quot; &amp;lt;&amp;lt; b &amp;lt;&amp;lt; endl;" style="shape=parallelogram;perimeter=parallelogramPerimeter;whiteSpace=wrap;html=1;fixedSize=1;" parent="1" vertex="1">
          <mxGeometry x="780" y="790" width="270" height="30" as="geometry" />
        </mxCell>
        <mxCell id="0bEB5rUUDSqFULpf0DKN-29" value="return 0;" style="ellipse;whiteSpace=wrap;html=1;" parent="1" vertex="1">
          <mxGeometry x="860" y="870" width="110" height="30" as="geometry" />
        </mxCell>
        <mxCell id="0bEB5rUUDSqFULpf0DKN-46" value="}" style="text;html=1;align=center;verticalAlign=middle;resizable=0;points=[];autosize=1;strokeColor=none;fillColor=none;" parent="1" vertex="1">
          <mxGeometry x="920" y="920" width="30" height="30" as="geometry" />
        </mxCell>
        <mxCell id="0bEB5rUUDSqFULpf0DKN-47" value="{" style="text;html=1;align=center;verticalAlign=middle;resizable=0;points=[];autosize=1;strokeColor=none;fillColor=none;" parent="1" vertex="1">
          <mxGeometry x="510" y="350" width="30" height="30" as="geometry" />
        </mxCell>
        <mxCell id="0bEB5rUUDSqFULpf0DKN-48" value="}" style="text;html=1;align=center;verticalAlign=middle;resizable=0;points=[];autosize=1;strokeColor=none;fillColor=none;" parent="1" vertex="1">
          <mxGeometry x="930" y="748" width="30" height="30" as="geometry" />
        </mxCell>
        <mxCell id="VErZ_QiHgzvn_z0K6P6F-5" value="" style="endArrow=none;html=1;rounded=0;entryX=0.5;entryY=1;entryDx=0;entryDy=0;" edge="1" parent="1" target="0bEB5rUUDSqFULpf0DKN-23">
          <mxGeometry width="50" height="50" relative="1" as="geometry">
            <mxPoint x="760" y="750" as="sourcePoint" />
            <mxPoint x="660" y="650" as="targetPoint" />
          </mxGeometry>
        </mxCell>
        <mxCell id="VErZ_QiHgzvn_z0K6P6F-8" value="" style="endArrow=classic;html=1;rounded=0;" edge="1" parent="1">
          <mxGeometry width="50" height="50" relative="1" as="geometry">
            <mxPoint x="760" y="750" as="sourcePoint" />
            <mxPoint x="660" y="750" as="targetPoint" />
          </mxGeometry>
        </mxCell>
        <mxCell id="VErZ_QiHgzvn_z0K6P6F-9" value="" style="endArrow=none;html=1;rounded=0;entryX=0.5;entryY=1;entryDx=0;entryDy=0;" edge="1" parent="1" target="0bEB5rUUDSqFULpf0DKN-22">
          <mxGeometry width="50" height="50" relative="1" as="geometry">
            <mxPoint x="580" y="750" as="sourcePoint" />
            <mxPoint x="635" y="700" as="targetPoint" />
          </mxGeometry>
        </mxCell>
        <mxCell id="VErZ_QiHgzvn_z0K6P6F-10" value="" style="endArrow=classic;html=1;rounded=0;" edge="1" parent="1">
          <mxGeometry width="50" height="50" relative="1" as="geometry">
            <mxPoint x="580" y="750" as="sourcePoint" />
            <mxPoint x="660" y="750" as="targetPoint" />
          </mxGeometry>
        </mxCell>
        <mxCell id="VErZ_QiHgzvn_z0K6P6F-11" value="" style="endArrow=none;html=1;rounded=0;entryX=0.5;entryY=1;entryDx=0;entryDy=0;" edge="1" parent="1" target="0bEB5rUUDSqFULpf0DKN-13">
          <mxGeometry width="50" height="50" relative="1" as="geometry">
            <mxPoint x="490" y="780" as="sourcePoint" />
            <mxPoint x="660" y="690" as="targetPoint" />
          </mxGeometry>
        </mxCell>
        <mxCell id="VErZ_QiHgzvn_z0K6P6F-12" value="" style="endArrow=classic;html=1;rounded=0;" edge="1" parent="1">
          <mxGeometry width="50" height="50" relative="1" as="geometry">
            <mxPoint x="490" y="780" as="sourcePoint" />
            <mxPoint x="580" y="780" as="targetPoint" />
          </mxGeometry>
        </mxCell>
        <mxCell id="VErZ_QiHgzvn_z0K6P6F-13" value="" style="endArrow=none;html=1;rounded=0;" edge="1" parent="1">
          <mxGeometry width="50" height="50" relative="1" as="geometry">
            <mxPoint x="660" y="780" as="sourcePoint" />
            <mxPoint x="660" y="750" as="targetPoint" />
          </mxGeometry>
        </mxCell>
        <mxCell id="VErZ_QiHgzvn_z0K6P6F-14" value="" style="endArrow=classic;html=1;rounded=0;" edge="1" parent="1">
          <mxGeometry width="50" height="50" relative="1" as="geometry">
            <mxPoint x="660" y="780" as="sourcePoint" />
            <mxPoint x="580" y="780" as="targetPoint" />
          </mxGeometry>
        </mxCell>
        <mxCell id="VErZ_QiHgzvn_z0K6P6F-17" value="" style="endArrow=none;html=1;rounded=0;" edge="1" parent="1">
          <mxGeometry width="50" height="50" relative="1" as="geometry">
            <mxPoint x="360" y="840" as="sourcePoint" />
            <mxPoint x="360" y="340" as="targetPoint" />
          </mxGeometry>
        </mxCell>
        <mxCell id="VErZ_QiHgzvn_z0K6P6F-18" value="" style="endArrow=classic;html=1;rounded=0;entryX=0;entryY=0.5;entryDx=0;entryDy=0;" edge="1" parent="1" target="0bEB5rUUDSqFULpf0DKN-12">
          <mxGeometry width="50" height="50" relative="1" as="geometry">
            <mxPoint x="360" y="340" as="sourcePoint" />
            <mxPoint x="410" y="290" as="targetPoint" />
          </mxGeometry>
        </mxCell>
        <mxCell id="VErZ_QiHgzvn_z0K6P6F-22" value="0" style="text;html=1;align=center;verticalAlign=middle;resizable=0;points=[];autosize=1;strokeColor=none;fillColor=none;" vertex="1" parent="1">
          <mxGeometry x="660" y="310" width="30" height="30" as="geometry" />
        </mxCell>
        <mxCell id="VErZ_QiHgzvn_z0K6P6F-23" value="1" style="text;html=1;align=center;verticalAlign=middle;resizable=0;points=[];autosize=1;strokeColor=none;fillColor=none;" vertex="1" parent="1">
          <mxGeometry x="540" y="360" width="30" height="30" as="geometry" />
        </mxCell>
        <mxCell id="VErZ_QiHgzvn_z0K6P6F-27" style="edgeStyle=orthogonalEdgeStyle;rounded=0;orthogonalLoop=1;jettySize=auto;html=1;exitX=0.5;exitY=1;exitDx=0;exitDy=0;entryX=0.5;entryY=0;entryDx=0;entryDy=0;" edge="1" parent="1" source="VErZ_QiHgzvn_z0K6P6F-25" target="0bEB5rUUDSqFULpf0DKN-14">
          <mxGeometry relative="1" as="geometry" />
        </mxCell>
        <mxCell id="VErZ_QiHgzvn_z0K6P6F-25" value="c=(a+b)/2;" style="rounded=0;whiteSpace=wrap;html=1;" vertex="1" parent="1">
          <mxGeometry x="520" y="390" width="120" height="30" as="geometry" />
        </mxCell>
        <mxCell id="VErZ_QiHgzvn_z0K6P6F-31" style="edgeStyle=orthogonalEdgeStyle;rounded=0;orthogonalLoop=1;jettySize=auto;html=1;exitX=0.5;exitY=1;exitDx=0;exitDy=0;entryX=0.5;entryY=0;entryDx=0;entryDy=0;" edge="1" parent="1" source="VErZ_QiHgzvn_z0K6P6F-28" target="0bEB5rUUDSqFULpf0DKN-9">
          <mxGeometry relative="1" as="geometry" />
        </mxCell>
        <mxCell id="VErZ_QiHgzvn_z0K6P6F-28" value="setlocale(LC_ALL,&quot;Rus&quot;);" style="rounded=0;whiteSpace=wrap;html=1;" vertex="1" parent="1">
          <mxGeometry x="510" y="170" width="140" height="40" as="geometry" />
        </mxCell>
        <mxCell id="VErZ_QiHgzvn_z0K6P6F-34" value="" style="endArrow=none;html=1;rounded=0;" edge="1" parent="1">
          <mxGeometry width="50" height="50" relative="1" as="geometry">
            <mxPoint x="360" y="840" as="sourcePoint" />
            <mxPoint x="580" y="780" as="targetPoint" />
            <Array as="points">
              <mxPoint x="580" y="840" />
            </Array>
          </mxGeometry>
        </mxCell>
        <mxCell id="VErZ_QiHgzvn_z0K6P6F-35" value="{" style="text;html=1;align=center;verticalAlign=middle;resizable=0;points=[];autosize=1;strokeColor=none;fillColor=none;" vertex="1" parent="1">
          <mxGeometry x="625" y="598" width="30" height="30" as="geometry" />
        </mxCell>
        <mxCell id="VErZ_QiHgzvn_z0K6P6F-36" value="}" style="text;html=1;align=center;verticalAlign=middle;resizable=0;points=[];autosize=1;strokeColor=none;fillColor=none;" vertex="1" parent="1">
          <mxGeometry x="675" y="748" width="30" height="30" as="geometry" />
        </mxCell>
      </root>
    </mxGraphModel>
  </diagram>
</mxfile>
